<?xml version="1.0" encoding="UTF-8" standalone="no"?>
<svg
   xmlns:dc="http://purl.org/dc/elements/1.1/"
   xmlns:cc="http://creativecommons.org/ns#"
   xmlns:rdf="http://www.w3.org/1999/02/22-rdf-syntax-ns#"
   xmlns:svg="http://www.w3.org/2000/svg"
   xmlns="http://www.w3.org/2000/svg"
   version="1.1"
   id="svg4945"
   viewBox="0 0 685.69566 319.43104"
   height="90.150536mm"
   width="193.51855mm">
  <defs
     id="defs4947">
    <marker
       style="overflow:visible"
       id="Arrow1Mend"
       refX="0"
       refY="0"
       orient="auto">
      <path
         transform="matrix(-0.4,0,0,-0.4,-4,0)"
         style="fill:#121259;fill-opacity:1;fill-rule:evenodd;stroke:#121259;stroke-width:1pt;stroke-opacity:1"
         d="M 0,0 5,-5 -12.5,0 5,5 0,0 Z"
         id="path4696" />
    </marker>
    <marker
       orient="auto"
       refY="0"
       refX="0"
       id="marker5843"
       style="overflow:visible">
      <path
         id="path5845"
         d="M 0,0 5,-5 -12.5,0 5,5 0,0 Z"
         style="fill:#121259;fill-opacity:1;fill-rule:evenodd;stroke:#121259;stroke-width:1pt;stroke-opacity:1"
         transform="matrix(-0.8,0,0,-0.8,-10,0)" />
    </marker>
    <marker
       orient="auto"
       refY="0"
       refX="0"
       id="marker4608"
       style="overflow:visible">
      <path
         id="path4610"
         d="M 0,0 5,-5 -12.5,0 5,5 0,0 Z"
         style="fill:#121259;fill-opacity:1;fill-rule:evenodd;stroke:#121259;stroke-width:1pt;stroke-opacity:1"
         transform="matrix(-0.8,0,0,-0.8,-10,0)" />
    </marker>
    <marker
       orient="auto"
       refY="0"
       refX="0"
       id="marker4580"
       style="overflow:visible">
      <path
         id="path4582"
         d="M 0,0 5,-5 -12.5,0 5,5 0,0 Z"
         style="fill:#121259;fill-opacity:1;fill-rule:evenodd;stroke:#121259;stroke-width:1pt;stroke-opacity:1"
         transform="matrix(-0.8,0,0,-0.8,-10,0)" />
    </marker>
    <marker
       orient="auto"
       refY="0"
       refX="0"
       id="marker4558"
       style="overflow:visible">
      <path
         id="path4560"
         d="M 0,0 5,-5 -12.5,0 5,5 0,0 Z"
         style="fill:#121259;fill-opacity:1;fill-rule:evenodd;stroke:#121259;stroke-width:1pt;stroke-opacity:1"
         transform="matrix(-0.8,0,0,-0.8,-10,0)" />
    </marker>
    <marker
       orient="auto"
       refY="0"
       refX="0"
       id="marker4682"
       style="overflow:visible">
      <path
         id="path4684"
         d="M 0,0 5,-5 -12.5,0 5,5 0,0 Z"
         style="fill:#121259;fill-opacity:1;fill-rule:evenodd;stroke:#121259;stroke-width:1pt;stroke-opacity:1"
         transform="matrix(-0.8,0,0,-0.8,-10,0)" />
    </marker>
    <marker
       orient="auto"
       refY="0"
       refX="0"
       id="marker4642"
       style="overflow:visible">
      <path
         id="path4644"
         d="M 0,0 5,-5 -12.5,0 5,5 0,0 Z"
         style="fill:#121259;fill-opacity:1;fill-rule:evenodd;stroke:#121259;stroke-width:1pt;stroke-opacity:1"
         transform="matrix(-0.8,0,0,-0.8,-10,0)" />
    </marker>
  </defs>
  <metadata
     id="metadata4950">
    <rdf:RDF>
      <cc:Work
         rdf:about="">
        <dc:format>image/svg+xml</dc:format>
        <dc:type
           rdf:resource="http://purl.org/dc/dcmitype/StillImage" />
        <dc:title></dc:title>
      </cc:Work>
    </rdf:RDF>
  </metadata>
  <g
     transform="translate(-24.555706,-146.03526)"
     id="layer1">
    <path
       id="longtail"
       d="m 254.80911,410.66012 0,21.76102 455.43822,-1.00618 c 0,0 -198.61315,-0.80553 -297.71911,-6.37742 -52.70779,-2.96331 -157.71911,-14.37742 -157.71911,-14.37742 z"
       style="fill:#f26768;fill-opacity:1;fill-rule:evenodd;stroke:#ffffff;stroke-width:2;stroke-linecap:butt;stroke-linejoin:miter;stroke-miterlimit:4;stroke-dasharray:none;stroke-opacity:1" />
    <path
       id="bigdata"
       d="m 54.261956,146.17243 c 0,0 17.608123,127.15216 43.842474,174.48498 l -0.761212,111.85163 -42.029761,0.26622 z"
       style="fill:#f26768;fill-opacity:1;fill-rule:evenodd;stroke:#ffffff;stroke-width:2;stroke-linecap:butt;stroke-linejoin:miter;stroke-miterlimit:4;stroke-dasharray:none;stroke-opacity:1" />
    <path
       id="mediumdata"
       d="m 98.10443,320.65738 -0.761212,111.85166 157.465892,-0.0879 0,-21.76102 c 0,0 -69.5059,-6.84 -100.50701,-26.89365 -21.75899,-14.07522 -56.19768,-63.10896 -56.19768,-63.10896 z"
       style="fill:#9fdbd1;fill-opacity:1;fill-rule:evenodd;stroke:#121259;stroke-width:2;stroke-linecap:butt;stroke-linejoin:miter;stroke-miterlimit:4;stroke-dasharray:none;stroke-opacity:1" />
    <text
       id="text5436"
       y="465.04147"
       x="256.68472"
       style="font-style:normal;font-variant:normal;font-weight:600;font-stretch:normal;font-size:30px;line-height:125%;font-family:Raleway;-inkscape-font-specification:'Raleway Semi-Bold';letter-spacing:0px;word-spacing:0px;fill:#000000;fill-opacity:1;stroke:none;stroke-width:1px;stroke-linecap:butt;stroke-linejoin:miter;stroke-opacity:1"
       xml:space="preserve"><tspan
         y="465.04147"
         x="256.68472"
         id="tspan5438">Number of Datasets</tspan></text>
    <text
       transform="matrix(0,-1,1,0,0,0)"
       id="text5440"
       y="47.348675"
       x="-422.81192"
       style="font-style:normal;font-variant:normal;font-weight:600;font-stretch:normal;font-size:30px;line-height:125%;font-family:Raleway;-inkscape-font-specification:'Raleway Semi-Bold';letter-spacing:0px;word-spacing:0px;fill:#000000;fill-opacity:1;stroke:none;stroke-width:1px;stroke-linecap:butt;stroke-linejoin:miter;stroke-opacity:1"
       xml:space="preserve"><tspan
         y="47.348675"
         x="-422.81192"
         id="tspan5442">Data Volume</tspan></text>
  </g>
</svg>
